# xmcd CD database file
#
# Track frame offsets:
#	150
#	29443
#	52671
#	67934
#	104582
#	128536
#	154770
#	175373
#	204850
#	225622
#	251116
#	272154
#	297041
#
# Disc length: 4336 seconds
#
# Revision: 0
# Processed by: cddbd v1.5.2PL0 Copyright (c) Steve Scherf et al.
# Submitted via: CDex 1.77
#
DISCID=ae10ee0d
DTITLE=Roy Scoutz - Autumn's Whisper
DYEAR=1999
DGENRE=New Age
TTITLE0=Tradewinds
TTITLE1=Boat on the Water
TTITLE2=Open Aire
TTITLE3=The Dragonfly
TTITLE4=Kindness of Strangers
TTITLE5=Desert Serenade
TTITLE6=Discover My World
TTITLE7=Balloons
TTITLE8=Open Highway
TTITLE9=A Summer Storm
TTITLE10=Movies and Popcorn
TTITLE11=Birdhouse
TTITLE12=Two Rivers - Autumn's Whisper
EXTD=YEAR: 1999
EXTT0=
EXTT1=
EXTT2=
EXTT3=
EXTT4=
EXTT5=
EXTT6=
EXTT7=
EXTT8=
EXTT9=
EXTT10=
EXTT11=
EXTT12=
PLAYORDER=
